HIERARCHY
ROOT hip
{
  OFFSET 0 0 0
  CHANNELS 6 Xposition Yposition Zposition Zrotation Yrotation Xrotation
  JOINT abdomen
  {
    OFFSET 0 20.6881 -0.73152
    CHANNELS 3 Zrotation Xrotation Yrotation
    JOINT chest
    {
      OFFSET 0 11.7043 -0.48768
      CHANNELS 3 Zrotation Xrotation Yrotation
      JOINT neck
      {
        OFFSET 0 22.1894 -2.19456
        CHANNELS 3 Zrotation Xrotation Yrotation
        JOINT head
        {
          OFFSET -0.24384 7.07133 1.2192
          CHANNELS 3 Zrotation Xrotation Yrotation
          JOINT leftEye
          {
            OFFSET 4.14528 8.04674 8.04672
            CHANNELS 3 Zrotation Xrotation Yrotation
            End Site
            {
              OFFSET 1 0 0
            }
          }
          JOINT rightEye
          {
            OFFSET -3.6576 8.04674 8.04672
            CHANNELS 3 Zrotation Xrotation Yrotation
            End Site
            {
              OFFSET 1 0 0
            }
          }
        }
      }
      JOINT rCollar
      {
        OFFSET -2.68224 19.2634 -4.8768
        CHANNELS 3 Zrotation Xrotation Yrotation
        JOINT rShldr
        {
          OFFSET -8.77824 -1.95073 1.46304
          CHANNELS 3 Zrotation Xrotation Yrotation
          JOINT rForeArm
          {
            OFFSET -28.1742 -1.7115 0.48768
            CHANNELS 3 Zrotation Xrotation Yrotation
            JOINT rHand
            {
              OFFSET -22.5879 0.773209 7.07136
              CHANNELS 3 Zrotation Xrotation Yrotation
              JOINT rThumb1
              {
                OFFSET -1.2192 -0.487915 3.41376
                CHANNELS 3 Zrotation Xrotation Yrotation
                JOINT rThumb2
                {
                  OFFSET -3.37035 -0.52449 3.41376
                  CHANNELS 3 Zrotation Xrotation Yrotation
                  End Site
                  {
                    OFFSET -1.78271 -1.18214 1.43049
                  }
                }
              }
              JOINT rIndex1
              {
                OFFSET -7.75947 0.938293 5.60832
                CHANNELS 3 Zrotation Xrotation Yrotation
                JOINT rIndex2
                {
                  OFFSET -2.54057 -0.884171 1.56538
                  CHANNELS 3 Zrotation Xrotation Yrotation
                  End Site
                  {
                    OFFSET -1.62519 -0.234802 1.16502
                  }
                }
              }
              JOINT rMid1
              {
                OFFSET -8.24714 1.18213 3.41376
                CHANNELS 3 Zrotation Xrotation Yrotation
                JOINT rMid2
                {
                  OFFSET -3.10165 -0.590103 1.0647
                  CHANNELS 3 Zrotation Xrotation Yrotation
                  End Site
                  {
                    OFFSET -2.48547 -0.328903 0.83742
                  }
                }
              }
              JOINT rRing1
              {
                OFFSET -8.82822 0.546677 1.51678
                CHANNELS 3 Zrotation Xrotation Yrotation
                JOINT rRing2
                {
                  OFFSET -2.60934 -0.819778 -0.0198488
                  CHANNELS 3 Zrotation Xrotation Yrotation
                  End Site
                  {
                    OFFSET -2.33842 -0.294052 0.168128
                  }
                }
              }
              JOINT rPinky1
              {
                OFFSET -8.27202 -0.0477905 -0.4584
                CHANNELS 3 Zrotation Xrotation Yrotation
                JOINT rPinky2
                {
                  OFFSET -1.82734 -0.647385 -0.700984
                  CHANNELS 3 Zrotation Xrotation Yrotation
                  End Site
                  {
                    OFFSET -1.69225 -0.51767 -0.607171
                  }
                }
              }
            }
          }
        }
      }
      JOINT lCollar
      {
        OFFSET 2.68224 19.2634 -4.8768
        CHANNELS 3 Zrotation Xrotation Yrotation
        JOINT lShldr
        {
          OFFSET 8.77824 -1.95073 1.46304
          CHANNELS 3 Zrotation Xrotation Yrotation
          JOINT lForeArm
          {
            OFFSET 28.1742 -1.7115 0.48768
            CHANNELS 3 Zrotation Xrotation Yrotation
            JOINT lHand
            {
              OFFSET 22.5879 0.773209 7.07136
              CHANNELS 3 Zrotation Xrotation Yrotation
              JOINT lThumb1
              {
                OFFSET 1.2192 -0.487915 3.41376
                CHANNELS 3 Zrotation Xrotation Yrotation
                JOINT lThumb2
                {
                  OFFSET 3.37035 -0.52449 3.41376
                  CHANNELS 3 Zrotation Xrotation Yrotation
                  End Site
                  {
                    OFFSET 1.78271 -1.18214 1.43049
                  }
                }
              }
              JOINT lIndex1
              {
                OFFSET 7.75947 0.938293 5.60832
                CHANNELS 3 Zrotation Xrotation Yrotation
                JOINT lIndex2
                {
                  OFFSET 2.54057 -0.884171 1.56538
                  CHANNELS 3 Zrotation Xrotation Yrotation
                  End Site
                  {
                    OFFSET 1.62519 -0.234802 1.16502
                  }
                }
              }
              JOINT lMid1
              {
                OFFSET 8.24714 1.18213 3.41376
                CHANNELS 3 Zrotation Xrotation Yrotation
                JOINT lMid2
                {
                  OFFSET 3.10165 -0.590103 1.0647
                  CHANNELS 3 Zrotation Xrotation Yrotation
                  End Site
                  {
                    OFFSET 2.48547 -0.328903 0.83742
                  }
                }
              }
              JOINT lRing1
              {
                OFFSET 8.82822 0.546677 1.51678
                CHANNELS 3 Zrotation Xrotation Yrotation
                JOINT lRing2
                {
                  OFFSET 2.60934 -0.819778 -0.0198488
                  CHANNELS 3 Zrotation Xrotation Yrotation
                  End Site
                  {
                    OFFSET 2.33842 -0.294052 0.168128
                  }
                }
              }
              JOINT lPinky1
              {
                OFFSET 8.27202 -0.0477905 -0.4584
                CHANNELS 3 Zrotation Xrotation Yrotation
                JOINT lPinky2
                {
                  OFFSET 1.82734 -0.647385 -0.700984
                  CHANNELS 3 Zrotation Xrotation Yrotation
                  End Site
                  {
                    OFFSET 1.69225 -0.51767 -0.607171
                  }
                }
              }
            }
          }
        }
      }
    }
  }
  JOINT rButtock
  {
    OFFSET -8.77824 4.35084 1.2192
    CHANNELS 3 Zrotation Xrotation Yrotation
    JOINT rThigh
    {
      OFFSET 0 -1.70687 -2.19456
      CHANNELS 3 Zrotation Xrotation Yrotation
      JOINT rShin
      {
        OFFSET 0 -36.8199 0.73152
        CHANNELS 3 Zrotation Xrotation Yrotation
        JOINT rFoot
        {
          OFFSET 0.73152 -45.1104 -5.12064
          CHANNELS 3 Zrotation Xrotation Yrotation
          End Site
          {
            OFFSET -1.1221 -3.69964 12.103
          }
        }
      }
    }
  }
  JOINT lButtock
  {
    OFFSET 8.77824 4.35084 1.2192
    CHANNELS 3 Zrotation Xrotation Yrotation
    JOINT lThigh
    {
      OFFSET 0 -1.70687 -2.19456
      CHANNELS 3 Zrotation Xrotation Yrotation
      JOINT lShin
      {
        OFFSET 0 -36.8199 0.73152
        CHANNELS 3 Zrotation Xrotation Yrotation
        JOINT lFoot
        {
          OFFSET -0.73152 -45.1104 -5.12064
          CHANNELS 3 Zrotation Xrotation Yrotation
          End Site
          {
            OFFSET 1.1221 -3.69964 12.103
          }
        }
      }
    }
  }
}
MOTION
Frames:	5
Frame Time:	0.00833333
-5.56195 85.2368 -196.953 0.0 0.0 0.0 0.717211 -0.00360082 0.0202298 0.197722 -0.00496001 0.034258 -1.85561e-14 -7.95139e-16 -6.21203e-17 -5.55821e-14 3.18055e-15 -2.26739e-16 -0.0 0.0 0.0 -0.0 0.0 0.0 -9.24501e-15 1.86361e-17 1.49089e-16 -1.92514e-13 2.23633e-16 -3.97569e-16 -3.34425e-12 1.01321e-12 1.27222e-14 -3.8287e-11 -9.3804e-13 -2.03556e-13 -9.03117e-11 1.63941e-13 -4.0075e-13 -1.55975e-10 2.79889e-13 -6.96541e-13 -9.03055e-11 1.63401e-13 -4.16653e-13 7.73091 5.47488 0.417314 -9.03117e-11 1.636e-13 -4.0075e-13 2.90554 0.965183 0.102902 -9.0311e-11 1.63799e-13 -4.03135e-13 10.2786 0.731801 0.0259123 -9.03184e-11 1.64196e-13 -3.84847e-13 2.22167 -0.733487 -0.20892 -9.34197e-15 1.88302e-17 -2.48481e-16 -1.96422e-13 4.28629e-16 -1.98785e-15 -3.34535e-12 -9.88954e-13 9.54166e-15 -3.82886e-11 1.06859e-12 -1.94014e-13 -9.03097e-11 1.70886e-13 -3.94389e-13 -1.55944e-10 2.92611e-13 -6.79844e-13 -9.0317e-11 1.72943e-13 -3.91208e-13 -7.73091 5.47488 -0.417314 -9.03106e-11 1.70657e-13 -4.0075e-13 -2.90554 0.965183 -0.102902 -9.03155e-11 1.71054e-13 -3.98364e-13 -10.2786 0.731801 -0.0259123 -9.02993e-11 1.74135e-13 -4.0393e-13 -2.22167 -0.733487 0.20892 -2.03217e-16 0.0 -3.88251e-19 1.07391 -4.87149 -0.0898579 -0.00140822 3.27149 0.00103051 -0.535049 1.59985 0.0940096 2.03217e-16 0.0 3.88251e-19 0.0162826 -2.15038 0.0188713 0.00887891 -1.65732 0.075022 0.526972 3.80743 -0.138587
-5.66079 83.9328 -198.534 -0.4822 -0.9959 3.0553 0.540553 0.136639 -0.732361 1.8558 -1.24367 -0.109742 -5.72546 3.15904 -3.21545 6.46258 -2.83368 -5.39415 -0.0 0.0 0.0 -0.0 0.0 0.0 -7.13342e-15 5.4719e-15 4.71104e-15 21.354 1.97862 -1.43008 -3.51504 -1.47877 5.61197 0.00949962 -2.16269 -0.303165 -1.15879e-10 2.09072e-10 2.8704e-12 -2.00616e-10 3.62373e-10 4.90888e-12 -1.15875e-10 2.09073e-10 2.85631e-12 7.73091 5.47488 0.417314 -1.15879e-10 2.09072e-10 2.86953e-12 2.90554 0.965183 0.102902 -1.15878e-10 2.09072e-10 2.86874e-12 10.2786 0.731801 0.0259123 -1.15885e-10 2.09073e-10 2.88275e-12 2.22167 -0.733487 -0.20892 -7.22072e-15 5.47462e-15 4.31114e-15 -23.2735 2.15219 1.12328 3.48731 -1.46238 -5.57226 -0.0196315 3.10974 -0.434726 -2.04523e-10 -1.92048e-10 1.11347e-10 -3.52425e-10 -3.31622e-10 1.94301e-10 -2.0453e-10 -1.92046e-10 1.11352e-10 -7.73091 5.47488 -0.417314 -2.04523e-10 -1.92047e-10 1.11345e-10 -2.90554 0.965183 -0.102902 -2.04528e-10 -1.92047e-10 1.11346e-10 -10.2786 0.731801 -0.0259123 -2.04514e-10 -1.92044e-10 1.11339e-10 -2.22167 -0.733487 0.20892 -2.03217e-16 0.0 -3.88251e-19 1.29959 -7.73687 0.0500344 -0.00976516 11.0301 0.102403 -0.530428 2.25676 0.106961 2.03217e-16 0.0 3.88251e-19 0.184633 -4.89376 -1.24837 0.00739158 6.1759 -0.0341267 0.521201 3.83474 -0.138301
-5.69595 83.911 -198.578 -0.465 -0.7784 3.266 0.359848 0.283779 -1.52637 3.60124 -2.55613 -0.26157 -11.3946 6.47088 -6.64428 12.7219 -5.74903 -11.1347 -0.0 0.0 0.0 -0.0 0.0 0.0 -4.90341e-15 1.07213e-14 9.9206e-15 44.0357 4.07068 -2.95605 -6.91821 -2.99513 11.5575 -0.00542647 -4.45379 -0.6258 -1.38543e-10 4.38007e-10 1.14408e-11 -2.403e-10 7.59215e-10 1.96946e-11 -1.3854e-10 4.38008e-10 1.14287e-11 7.73091 5.47488 0.417314 -1.38543e-10 4.38006e-10 1.14391e-11 2.90554 0.965183 0.102902 -1.38541e-10 4.38006e-10 1.144e-11 10.2786 0.731801 0.0259123 -1.38547e-10 4.38008e-10 1.14494e-11 2.22167 -0.733487 -0.20892 -4.98028e-15 1.07268e-14 9.51681e-15 -47.9697 4.40516 2.32332 6.86231 -2.95975 -11.4684 0.0112571 6.40546 -0.899817 -3.27355e-10 -4.06006e-10 2.33997e-10 -5.63702e-10 -7.01093e-10 4.08307e-10 -3.27361e-10 -4.06004e-10 2.34006e-10 -7.73091 5.47488 -0.417314 -3.27354e-10 -4.06004e-10 2.34001e-10 -2.90554 0.965183 -0.102902 -3.27359e-10 -4.06004e-10 2.34e-10 -10.2786 0.731801 -0.0259123 -3.27346e-10 -4.06002e-10 2.33992e-10 -2.22167 -0.733487 0.20892 -2.03217e-16 0.0 -3.88251e-19 1.55325 -10.7649 0.201471 -0.0501026 19.2313 0.217847 -0.52585 2.95118 0.120678 2.03217e-16 0.0 3.88251e-19 0.229296 -7.78801 -2.60153 0.0389961 14.4588 -0.153981 0.515097 3.8636 -0.137998
-5.70166 83.9162 -198.486 -0.3769 -1.0928 3.2202 0.198287 0.416835 -2.2376 5.15326 -3.72102 -0.398504 -16.1061 9.35702 -9.76281 17.7969 -8.19894 -16.3342 -0.0 0.0 0.0 -0.0 0.0 0.0 -2.91023e-15 1.63784e-14 1.38349e-14 64.3594 5.92104 -4.31072 -9.68794 -4.26636 16.8785 -0.0405344 -6.48734 -0.914704 -1.67015e-10 6.2689e-10 9.4127e-12 -2.89899e-10 1.08656e-09 1.61197e-11 -1.67013e-10 6.26891e-10 9.40224e-12 7.73091 5.47488 0.417314 -1.67015e-10 6.26887e-10 9.4101e-12 2.90554 0.965183 0.102902 -1.67011e-10 6.26888e-10 9.4125e-12 10.2786 0.731801 0.0259123 -1.67017e-10 6.26891e-10 9.41795e-12 2.22167 -0.733487 -0.20892 -2.97823e-15 1.63862e-14 1.34304e-14 -70.075 6.44661 3.38893 9.62009 -4.22144 -16.7581 0.0842762 9.32707 -1.31971 -4.32949e-10 -5.76486e-10 3.34828e-10 -7.45386e-10 -9.9545e-10 5.84264e-10 -4.32955e-10 -5.76483e-10 3.3484e-10 -7.73091 5.47488 -0.417314 -4.32948e-10 -5.76483e-10 3.34836e-10 -2.90554 0.965183 -0.102902 -4.32952e-10 -5.76483e-10 3.34834e-10 -10.2786 0.731801 -0.0259123 -4.32942e-10 -5.76481e-10 3.34825e-10 -2.22167 -0.733487 0.20892 -2.03217e-16 0.0 -3.88251e-19 1.79398 -13.4674 0.337072 -0.117442 26.547 0.334771 -0.52208 3.57057 0.132946 2.03217e-16 0.0 3.88251e-19 0.152137 -10.3613 -3.83175 0.0986574 21.8421 -0.271239 0.50966 3.88936 -0.13773
-5.71653 83.91 -198.498 -0.3316 -0.947 3.2842 0.0769581 0.51495 -2.74183 6.23491 -4.51711 -0.497463 -19.1826 11.2933 -11.9939 21.0304 -9.77264 -20.0357 -0.0 0.0 0.0 -0.0 0.0 0.0 -1.50913e-15 2.30548e-14 1.45113e-14 78.5738 7.18172 -5.21713 -11.4743 -5.08682 20.5971 -0.0767222 -7.87768 -1.11424 -2.10006e-10 7.15639e-10 -1.9112e-11 -3.64287e-10 1.24015e-09 -3.33569e-11 -2.10006e-10 7.15641e-10 -1.91215e-11 7.73091 5.47488 0.417314 -2.10007e-10 7.15637e-10 -1.91151e-11 2.90554 0.965183 0.102902 -2.10003e-10 7.15637e-10 -1.9112e-11 10.2786 0.731801 0.0259123 -2.10009e-10 7.15641e-10 -1.91088e-11 2.22167 -0.733487 -0.20892 -1.57219e-15 2.30637e-14 1.41137e-14 -85.5242 7.96878 4.10083 11.4201 -5.05021 -20.493 0.15966 11.3155 -1.61151 -4.9545e-10 -6.38267e-10 3.8111e-10 -8.53089e-10 -1.10202e-09 6.65102e-10 -4.95455e-10 -6.38265e-10 3.81123e-10 -7.73091 5.47488 -0.417314 -4.95449e-10 -6.38264e-10 3.81119e-10 -2.90554 0.965183 -0.102902 -4.95453e-10 -6.38264e-10 3.81116e-10 -10.2786 0.731801 -0.0259123 -4.95444e-10 -6.38263e-10 3.81107e-10 -2.22167 -0.733487 0.20892 -2.03217e-16 0.0 -3.88251e-19 1.97107 -15.3564 0.426746 -0.185388 31.6496 0.428507 -0.5197 4.00236 0.141531 2.03217e-16 0.0 3.88251e-19 0.0320514 -12.1495 -4.71151 0.160334 26.9768 -0.362605 0.505894 3.90738 -0.137548
